<svg xmlns="http://www.w3.org/2000/svg" viewBox="0 0 720 720">
    <path fill="#333" d="M0 0h720v720H0z"/>
    <path d="M104 264h92.3l7.7-64H88c-26.5 0-48 21.5-48 48v224c0 26.5 21.5 48 48 48h180.6l14.2-64H104V264zm552 0h-8v-16c0-26.5-21.5-48-48-48H445.4l-10 48h33.4c15.8 0 31.1 5.7 43.1 16H584v64h32v64h-32v64H467.2l-36.6 64H600c26.5 0 48-21.5 48-48v-16h8c13.3 0 24-10.7 24-24V288c0-13.3-10.7-24-24-24z" fill="#fff"/>
    <path d="M485.4 327.5l-140.8 246c-3.2 6.3-9.6 10.3-16.6 10.5-12.3 0-21.5-12.6-18.7-25.8l36.8-166.4h-95c-11.6 0-20.6-11.2-19-23.8l25.6-213.8c1.2-10.4 9.4-18.2 19-18.2h108.8c12.6 0 21.8 13.1 18.5 26.4L376.5 296h92.3c14.8 0 24 17.5 16.6 31.5z" fill="#e8bd01"/>
</svg>
