<?xml version="1.0" standalone="no"?>
<!DOCTYPE svg PUBLIC "-//W3C//DTD SVG 20010904//EN"
 "http://www.w3.org/TR/2001/REC-SVG-20010904/DTD/svg10.dtd">
<svg version="1.0" xmlns="http://www.w3.org/2000/svg"
 width="700.000000pt" height="700.000000pt" viewBox="0 0 700.000000 700.000000"
 preserveAspectRatio="xMidYMid meet">
<metadata>
Created by potrace 1.14, written by Peter Selinger 2001-2017
</metadata>
<g transform="translate(0.000000,700.000000) scale(0.100000,-0.100000)"
fill="#000000" stroke="none">
<path d="M2645 5672 c-48 -11 -99 -58 -122 -111 -15 -35 -16 -38 -33 -191 -6
-52 -13 -106 -15 -120 -2 -14 -7 -54 -10 -90 -4 -36 -9 -73 -11 -83 -2 -10 -6
-48 -10 -85 -3 -36 -7 -74 -9 -84 -2 -9 -7 -48 -10 -85 -4 -37 -8 -75 -10 -83
-2 -8 -7 -43 -10 -78 -4 -35 -8 -72 -10 -82 -2 -10 -7 -50 -10 -87 -4 -37 -9
-75 -10 -83 -2 -8 -6 -44 -10 -80 -3 -36 -8 -76 -10 -90 -5 -33 -17 -130 -20
-155 -5 -55 -18 -162 -21 -178 -2 -10 -6 -46 -9 -80 -3 -34 -8 -73 -10 -87 -2
-14 -7 -50 -10 -80 -3 -30 -8 -66 -10 -80 -3 -24 -15 -128 -20 -180 -8 -84 68
-190 145 -204 14 -2 236 -5 494 -5 l469 -1 -6 -32 c-3 -18 -8 -42 -11 -53 -2
-11 -34 -155 -71 -320 -37 -165 -68 -307 -70 -315 -3 -14 -42 -190 -82 -375
-8 -38 -16 -77 -18 -85 -2 -8 -4 -15 -5 -15 -1 0 -3 -9 -5 -20 -3 -11 -23
-105 -46 -210 -24 -104 -43 -215 -42 -246 0 -129 110 -219 228 -188 49 13 108
73 150 151 17 31 91 164 167 295 649 1133 833 1453 852 1488 33 58 63 111 167
290 174 302 188 337 163 422 -16 58 -49 100 -97 124 -40 21 -54 21 -509 22
-257 0 -468 3 -468 6 0 3 4 22 10 41 5 19 12 50 15 68 3 18 12 65 21 105 8 39
18 83 20 97 3 14 16 79 30 145 23 108 105 512 118 575 2 14 17 81 31 150 15
69 27 145 27 170 1 73 -44 145 -112 180 -32 16 -76 18 -595 17 -308 0 -569 -2
-580 -5z"/>
<path d="M785 5048 c-182 -26 -333 -162 -380 -343 -13 -52 -15 -208 -15 -1210
0 -1102 1 -1153 19 -1213 51 -168 177 -286 352 -328 13 -4 435 -7 937 -8 806
-1 913 1 917 14 2 8 25 110 50 225 57 253 49 218 64 290 7 33 14 67 17 76 4
14 -75 16 -866 15 l-870 -1 0 933 0 932 28 1 c15 0 217 1 450 2 421 0 422 0
423 21 1 12 3 30 4 41 1 11 6 45 9 75 4 30 11 89 16 130 5 41 12 98 15 125 4
28 8 60 10 73 2 13 7 53 11 90 l6 67 -574 0 c-315 0 -596 -3 -623 -7z"/>
<path d="M4319 5000 c-6 -30 -28 -134 -49 -230 -24 -113 -33 -176 -26 -177 6
-1 106 -4 221 -6 162 -3 222 -8 264 -22 79 -25 150 -59 201 -97 l45 -33 335
-1 c184 -1 342 -2 351 -3 14 -1 16 -32 17 -293 0 -161 1 -301 1 -310 1 -16 15
-18 156 -18 l155 0 0 -310 0 -310 -155 0 c-141 0 -155 -2 -156 -17 0 -10 -1
-150 -1 -310 -1 -208 -4 -293 -12 -294 -6 0 -258 -2 -561 -2 -302 -1 -555 -5
-561 -9 -10 -7 -104 -162 -104 -172 0 -3 -22 -41 -50 -86 -27 -45 -50 -83 -50
-85 0 -2 -34 -62 -75 -134 -41 -71 -75 -132 -75 -133 0 -2 388 -3 863 -3 691
1 870 4 902 14 176 59 299 191 334 359 6 29 11 97 11 151 l0 98 63 1 c34 0 81
8 105 17 51 21 114 90 130 143 17 56 17 1488 0 1544 -16 54 -79 123 -131 143
-23 8 -70 17 -104 18 l-63 2 0 96 c0 122 -12 187 -51 265 -55 114 -161 203
-284 240 -55 16 -121 18 -847 19 l-788 0 -11 -55z"/>
</g>
</svg>
